<mxfile host="app.diagrams.net" agent="Mozilla/5.0 (Windows NT 10.0; Win64; x64) AppleWebKit/537.36 (KHTML, like Gecko) Chrome/131.0.0.0 Safari/537.36" version="24.8.8">
  <diagram name="Page-1" id="zEHJ6qdCKaGMeuj1rJUf">
    <mxGraphModel dx="2977" dy="2117" grid="1" gridSize="10" guides="1" tooltips="1" connect="1" arrows="1" fold="1" page="1" pageScale="1" pageWidth="827" pageHeight="1169" math="0" shadow="0">
      <root>
        <mxCell id="0" />
        <mxCell id="1" parent="0" />
        <mxCell id="usecase-register-births" value="Register Births" style="shape=ellipse;whiteSpace=wrap;html=1;" parent="1" vertex="1">
          <mxGeometry x="300" y="100" width="120" height="40" as="geometry" />
        </mxCell>
        <mxCell id="usecase-register-deaths" value="Register Deaths" style="shape=ellipse;whiteSpace=wrap;html=1;" parent="1" vertex="1">
          <mxGeometry x="300" y="160" width="120" height="40" as="geometry" />
        </mxCell>
        <mxCell id="usecase-update-birth" value="Update Birth Record" style="shape=ellipse;whiteSpace=wrap;html=1;" parent="1" vertex="1">
          <mxGeometry x="300" y="220" width="120" height="40" as="geometry" />
        </mxCell>
        <mxCell id="usecase-update-death" value="Update Death Record" style="shape=ellipse;whiteSpace=wrap;html=1;" parent="1" vertex="1">
          <mxGeometry x="300" y="280" width="120" height="40" as="geometry" />
        </mxCell>
        <mxCell id="usecase-view-reports" value="View Reports" style="shape=ellipse;whiteSpace=wrap;html=1;" parent="1" vertex="1">
          <mxGeometry x="300" y="340" width="120" height="40" as="geometry" />
        </mxCell>
        <mxCell id="usecase-submit-birth-info" value="Submit Birth Information" style="shape=ellipse;whiteSpace=wrap;html=1;" parent="1" vertex="1">
          <mxGeometry x="300" y="400" width="120" height="40" as="geometry" />
        </mxCell>
        <mxCell id="usecase-view-registered-births" value="View Registered Births" style="shape=ellipse;whiteSpace=wrap;html=1;" parent="1" vertex="1">
          <mxGeometry x="300" y="460" width="120" height="40" as="geometry" />
        </mxCell>
        <mxCell id="usecase-provide-event-info" value="Provide Event Information" style="shape=ellipse;whiteSpace=wrap;html=1;" parent="1" vertex="1">
          <mxGeometry x="300" y="520" width="120" height="40" as="geometry" />
        </mxCell>
        <mxCell id="usecase-confirm-info" value="Confirm Information" style="shape=ellipse;whiteSpace=wrap;html=1;" parent="1" vertex="1">
          <mxGeometry x="300" y="580" width="120" height="40" as="geometry" />
        </mxCell>
        <mxCell id="usecase-manage-users" value="Manage Users" style="shape=ellipse;whiteSpace=wrap;html=1;" parent="1" vertex="1">
          <mxGeometry x="300" y="640" width="120" height="40" as="geometry" />
        </mxCell>
        <mxCell id="usecase-update-system-config" value="Update System Configuration" style="shape=ellipse;whiteSpace=wrap;html=1;" parent="1" vertex="1">
          <mxGeometry x="300" y="700" width="120" height="40" as="geometry" />
        </mxCell>
        <mxCell id="usecase-generate-system-logs" value="Generate System Logs" style="shape=ellipse;whiteSpace=wrap;html=1;" parent="1" vertex="1">
          <mxGeometry x="300" y="760" width="120" height="40" as="geometry" />
        </mxCell>
        <mxCell id="usecase-analyze-reports" value="Analyze Reports" style="shape=ellipse;whiteSpace=wrap;html=1;" parent="1" vertex="1">
          <mxGeometry x="300" y="820" width="120" height="40" as="geometry" />
        </mxCell>
        <mxCell id="usecase-view-registry-stats" value="View Registry Statistics" style="shape=ellipse;whiteSpace=wrap;html=1;" parent="1" vertex="1">
          <mxGeometry x="300" y="880" width="120" height="40" as="geometry" />
        </mxCell>
        <mxCell id="usecase-search-public-records" value="Search Public Records" style="shape=ellipse;whiteSpace=wrap;html=1;" parent="1" vertex="1">
          <mxGeometry x="300" y="940" width="120" height="40" as="geometry" />
        </mxCell>
        <mxCell id="usecase-request-certificates" value="Request Birth/Death Certificates" style="shape=ellipse;whiteSpace=wrap;html=1;" parent="1" vertex="1">
          <mxGeometry x="300" y="1000" width="140" height="60" as="geometry" />
        </mxCell>
        <mxCell id="EQvppWNs7bo5SaMM-itI-2" value="" style="swimlane;startSize=0;" parent="1" vertex="1">
          <mxGeometry x="-300" y="50" width="1070" height="1060" as="geometry" />
        </mxCell>
        <mxCell id="EQvppWNs7bo5SaMM-itI-3" value="&lt;span style=&quot;text-wrap-mode: wrap;&quot;&gt;Registrar&lt;/span&gt;" style="shape=umlActor;verticalLabelPosition=bottom;verticalAlign=top;html=1;outlineConnect=0;" parent="EQvppWNs7bo5SaMM-itI-2" vertex="1">
          <mxGeometry x="360" y="150" width="50" height="80" as="geometry" />
        </mxCell>
        <mxCell id="uGFj_hesjGFwuIpIqvNe-1" value="&lt;span style=&quot;text-wrap-mode: wrap;&quot;&gt;Government Official&lt;/span&gt;" style="shape=umlActor;verticalLabelPosition=bottom;verticalAlign=top;html=1;outlineConnect=0;" vertex="1" parent="EQvppWNs7bo5SaMM-itI-2">
          <mxGeometry x="390" y="770" width="50" height="80" as="geometry" />
        </mxCell>
        <mxCell id="uGFj_hesjGFwuIpIqvNe-2" value="&lt;span style=&quot;text-wrap-mode: wrap;&quot;&gt;Administrator&lt;/span&gt;" style="shape=umlActor;verticalLabelPosition=bottom;verticalAlign=top;html=1;outlineConnect=0;" vertex="1" parent="EQvppWNs7bo5SaMM-itI-2">
          <mxGeometry x="870" y="610" width="50" height="80" as="geometry" />
        </mxCell>
        <mxCell id="uGFj_hesjGFwuIpIqvNe-3" value="&lt;span style=&quot;text-wrap-mode: wrap;&quot;&gt;Parent&lt;/span&gt;" style="shape=umlActor;verticalLabelPosition=bottom;verticalAlign=top;html=1;outlineConnect=0;" vertex="1" parent="EQvppWNs7bo5SaMM-itI-2">
          <mxGeometry x="880" y="360" width="50" height="80" as="geometry" />
        </mxCell>
        <mxCell id="uGFj_hesjGFwuIpIqvNe-4" value="&lt;span style=&quot;text-wrap-mode: wrap;&quot;&gt;Witness&lt;/span&gt;" style="shape=umlActor;verticalLabelPosition=bottom;verticalAlign=top;html=1;outlineConnect=0;" vertex="1" parent="EQvppWNs7bo5SaMM-itI-2">
          <mxGeometry x="360" y="470" width="50" height="80" as="geometry" />
        </mxCell>
        <mxCell id="uGFj_hesjGFwuIpIqvNe-5" value="&lt;span style=&quot;text-wrap-mode: wrap;&quot;&gt;Public User&lt;/span&gt;" style="shape=umlActor;verticalLabelPosition=bottom;verticalAlign=top;html=1;outlineConnect=0;" vertex="1" parent="EQvppWNs7bo5SaMM-itI-2">
          <mxGeometry x="870" y="890" width="50" height="80" as="geometry" />
        </mxCell>
        <mxCell id="uGFj_hesjGFwuIpIqvNe-10" value="" style="endArrow=none;html=1;rounded=0;entryX=0;entryY=0.5;entryDx=0;entryDy=0;exitX=0.5;exitY=0.5;exitDx=0;exitDy=0;exitPerimeter=0;" edge="1" parent="1" source="EQvppWNs7bo5SaMM-itI-3" target="usecase-register-births">
          <mxGeometry width="50" height="50" relative="1" as="geometry">
            <mxPoint x="120" y="230" as="sourcePoint" />
            <mxPoint x="170" y="180" as="targetPoint" />
          </mxGeometry>
        </mxCell>
        <mxCell id="uGFj_hesjGFwuIpIqvNe-12" value="" style="endArrow=none;html=1;rounded=0;entryX=0;entryY=0.5;entryDx=0;entryDy=0;exitX=0.5;exitY=0.5;exitDx=0;exitDy=0;exitPerimeter=0;" edge="1" parent="1" source="EQvppWNs7bo5SaMM-itI-3" target="usecase-view-reports">
          <mxGeometry width="50" height="50" relative="1" as="geometry">
            <mxPoint x="190" y="400" as="sourcePoint" />
            <mxPoint x="240" y="350" as="targetPoint" />
          </mxGeometry>
        </mxCell>
        <mxCell id="uGFj_hesjGFwuIpIqvNe-13" value="" style="endArrow=none;html=1;rounded=0;entryX=0;entryY=0.5;entryDx=0;entryDy=0;exitX=0.5;exitY=0.5;exitDx=0;exitDy=0;exitPerimeter=0;" edge="1" parent="1" source="EQvppWNs7bo5SaMM-itI-3" target="usecase-register-deaths">
          <mxGeometry width="50" height="50" relative="1" as="geometry">
            <mxPoint x="200" y="270" as="sourcePoint" />
            <mxPoint x="250" y="220" as="targetPoint" />
          </mxGeometry>
        </mxCell>
        <mxCell id="uGFj_hesjGFwuIpIqvNe-14" value="" style="endArrow=none;html=1;rounded=0;entryX=0;entryY=0.5;entryDx=0;entryDy=0;exitX=0.5;exitY=0.5;exitDx=0;exitDy=0;exitPerimeter=0;" edge="1" parent="1" source="EQvppWNs7bo5SaMM-itI-3" target="usecase-update-birth">
          <mxGeometry width="50" height="50" relative="1" as="geometry">
            <mxPoint x="210" y="270" as="sourcePoint" />
            <mxPoint x="260" y="220" as="targetPoint" />
          </mxGeometry>
        </mxCell>
        <mxCell id="uGFj_hesjGFwuIpIqvNe-15" value="" style="endArrow=none;html=1;rounded=0;entryX=0;entryY=0.5;entryDx=0;entryDy=0;exitX=0.5;exitY=0.5;exitDx=0;exitDy=0;exitPerimeter=0;" edge="1" parent="1" source="EQvppWNs7bo5SaMM-itI-3" target="usecase-update-death">
          <mxGeometry width="50" height="50" relative="1" as="geometry">
            <mxPoint x="230" y="320" as="sourcePoint" />
            <mxPoint x="280" y="270" as="targetPoint" />
          </mxGeometry>
        </mxCell>
        <mxCell id="uGFj_hesjGFwuIpIqvNe-17" value="" style="endArrow=none;html=1;rounded=0;entryX=0.5;entryY=0.5;entryDx=0;entryDy=0;entryPerimeter=0;exitX=1;exitY=0.5;exitDx=0;exitDy=0;" edge="1" parent="1" source="usecase-submit-birth-info" target="uGFj_hesjGFwuIpIqvNe-3">
          <mxGeometry width="50" height="50" relative="1" as="geometry">
            <mxPoint x="450" y="450" as="sourcePoint" />
            <mxPoint x="500" y="400" as="targetPoint" />
          </mxGeometry>
        </mxCell>
        <mxCell id="uGFj_hesjGFwuIpIqvNe-18" value="" style="endArrow=none;html=1;rounded=0;entryX=0.5;entryY=0.5;entryDx=0;entryDy=0;entryPerimeter=0;exitX=1;exitY=0.5;exitDx=0;exitDy=0;" edge="1" parent="1" source="usecase-view-registered-births" target="uGFj_hesjGFwuIpIqvNe-3">
          <mxGeometry width="50" height="50" relative="1" as="geometry">
            <mxPoint x="470" y="530" as="sourcePoint" />
            <mxPoint x="520" y="480" as="targetPoint" />
          </mxGeometry>
        </mxCell>
        <mxCell id="uGFj_hesjGFwuIpIqvNe-19" value="" style="endArrow=none;html=1;rounded=0;entryX=0;entryY=0.5;entryDx=0;entryDy=0;exitX=0.5;exitY=0.5;exitDx=0;exitDy=0;exitPerimeter=0;" edge="1" parent="1" source="uGFj_hesjGFwuIpIqvNe-4" target="usecase-provide-event-info">
          <mxGeometry width="50" height="50" relative="1" as="geometry">
            <mxPoint x="230" y="610" as="sourcePoint" />
            <mxPoint x="280" y="560" as="targetPoint" />
          </mxGeometry>
        </mxCell>
        <mxCell id="uGFj_hesjGFwuIpIqvNe-20" value="" style="endArrow=none;html=1;rounded=0;entryX=0;entryY=0.5;entryDx=0;entryDy=0;exitX=0.5;exitY=0.5;exitDx=0;exitDy=0;exitPerimeter=0;" edge="1" parent="1" source="uGFj_hesjGFwuIpIqvNe-4" target="usecase-confirm-info">
          <mxGeometry width="50" height="50" relative="1" as="geometry">
            <mxPoint x="190" y="640" as="sourcePoint" />
            <mxPoint x="240" y="590" as="targetPoint" />
          </mxGeometry>
        </mxCell>
        <mxCell id="uGFj_hesjGFwuIpIqvNe-23" value="" style="endArrow=none;html=1;rounded=0;entryX=0.5;entryY=0.5;entryDx=0;entryDy=0;entryPerimeter=0;exitX=1;exitY=0.5;exitDx=0;exitDy=0;" edge="1" parent="1" source="usecase-manage-users" target="uGFj_hesjGFwuIpIqvNe-2">
          <mxGeometry width="50" height="50" relative="1" as="geometry">
            <mxPoint x="440" y="710" as="sourcePoint" />
            <mxPoint x="490" y="660" as="targetPoint" />
          </mxGeometry>
        </mxCell>
        <mxCell id="uGFj_hesjGFwuIpIqvNe-24" value="" style="endArrow=none;html=1;rounded=0;entryX=0.5;entryY=0.5;entryDx=0;entryDy=0;entryPerimeter=0;exitX=1;exitY=0.5;exitDx=0;exitDy=0;" edge="1" parent="1" source="usecase-generate-system-logs" target="uGFj_hesjGFwuIpIqvNe-2">
          <mxGeometry width="50" height="50" relative="1" as="geometry">
            <mxPoint x="500" y="780" as="sourcePoint" />
            <mxPoint x="550" y="730" as="targetPoint" />
          </mxGeometry>
        </mxCell>
        <mxCell id="uGFj_hesjGFwuIpIqvNe-25" value="" style="endArrow=none;html=1;rounded=0;exitX=0.5;exitY=0.5;exitDx=0;exitDy=0;exitPerimeter=0;entryX=1;entryY=0.5;entryDx=0;entryDy=0;" edge="1" parent="1" source="uGFj_hesjGFwuIpIqvNe-2" target="usecase-update-system-config">
          <mxGeometry width="50" height="50" relative="1" as="geometry">
            <mxPoint x="410" y="760" as="sourcePoint" />
            <mxPoint x="460" y="710" as="targetPoint" />
          </mxGeometry>
        </mxCell>
        <mxCell id="uGFj_hesjGFwuIpIqvNe-27" value="" style="endArrow=none;html=1;rounded=0;entryX=0;entryY=0.5;entryDx=0;entryDy=0;exitX=0.5;exitY=0.5;exitDx=0;exitDy=0;exitPerimeter=0;" edge="1" parent="1" source="uGFj_hesjGFwuIpIqvNe-1" target="usecase-analyze-reports">
          <mxGeometry width="50" height="50" relative="1" as="geometry">
            <mxPoint x="210" y="870" as="sourcePoint" />
            <mxPoint x="260" y="820" as="targetPoint" />
          </mxGeometry>
        </mxCell>
        <mxCell id="uGFj_hesjGFwuIpIqvNe-28" value="" style="endArrow=none;html=1;rounded=0;entryX=0;entryY=0.5;entryDx=0;entryDy=0;exitX=0.5;exitY=0.5;exitDx=0;exitDy=0;exitPerimeter=0;" edge="1" parent="1" source="uGFj_hesjGFwuIpIqvNe-1" target="usecase-view-registry-stats">
          <mxGeometry width="50" height="50" relative="1" as="geometry">
            <mxPoint x="190" y="950" as="sourcePoint" />
            <mxPoint x="240" y="900" as="targetPoint" />
          </mxGeometry>
        </mxCell>
        <mxCell id="uGFj_hesjGFwuIpIqvNe-31" value="" style="endArrow=none;html=1;rounded=0;entryX=0.5;entryY=0.5;entryDx=0;entryDy=0;entryPerimeter=0;exitX=1;exitY=0.5;exitDx=0;exitDy=0;" edge="1" parent="1" source="usecase-request-certificates" target="uGFj_hesjGFwuIpIqvNe-5">
          <mxGeometry width="50" height="50" relative="1" as="geometry">
            <mxPoint x="440" y="960" as="sourcePoint" />
            <mxPoint x="490" y="910" as="targetPoint" />
          </mxGeometry>
        </mxCell>
        <mxCell id="uGFj_hesjGFwuIpIqvNe-30" value="" style="endArrow=none;html=1;rounded=0;entryX=0.5;entryY=0.5;entryDx=0;entryDy=0;entryPerimeter=0;exitX=1;exitY=0.5;exitDx=0;exitDy=0;" edge="1" parent="1" source="usecase-search-public-records" target="uGFj_hesjGFwuIpIqvNe-5">
          <mxGeometry width="50" height="50" relative="1" as="geometry">
            <mxPoint x="480" y="1040" as="sourcePoint" />
            <mxPoint x="530" y="990" as="targetPoint" />
          </mxGeometry>
        </mxCell>
        <mxCell id="uGFj_hesjGFwuIpIqvNe-32" value="&lt;font style=&quot;font-size: 30px;&quot;&gt;Use Case DIagram for Death and Birth Registry Database&lt;/font&gt;" style="text;html=1;align=center;verticalAlign=middle;resizable=0;points=[];autosize=1;strokeColor=none;fillColor=none;" vertex="1" parent="1">
          <mxGeometry x="-160" y="-12" width="790" height="50" as="geometry" />
        </mxCell>
      </root>
    </mxGraphModel>
  </diagram>
</mxfile>
